<?xml version="1.0" encoding="utf-8"?>
<!-- Generator: Adobe Illustrator 28.0.0, SVG Export Plug-In . SVG Version: 6.00 Build 0)  -->
<svg version="1.1" xmlns="http://www.w3.org/2000/svg" xmlns:xlink="http://www.w3.org/1999/xlink" x="0px" y="0px"
	 viewBox="0 0 457.56 522" style="enable-background:new 0 0 457.56 522;" xml:space="preserve">
<style type="text/css">
	.st0{fill:#FFFFFF;}
	.st1{display:none;}
</style>
<g id="Dervox">
	<g>
		<g>
			<g>
				<path class="st0" d="M0,521.27v-85.29h31.07c26.56,0,44.22,17.43,44.22,42.52s-17.67,42.77-44.22,42.77H0z M18.27,506.04h12.8
					c16.32,0,25.46-11.33,25.46-27.53s-9.14-27.29-25.46-27.29h-12.8V506.04L18.27,506.04L18.27,506.04z"/>
				<path class="st0" d="M82.64,490.08c0-19.49,12.79-32.16,32.16-32.16s31.43,11.7,31.68,30.09c0,1.83-0.12,3.9-0.49,5.85h-45.44
					v0.85c0.36,8.89,6.09,14.26,14.74,14.26c6.94,0,11.82-3.05,13.28-8.89h16.94c-1.95,12.18-12.8,21.92-29.48,21.92
					c-20.84,0-33.38-12.55-33.38-31.92C82.65,490.08,82.64,490.08,82.64,490.08z M129.18,482.65c-1.22-7.68-6.46-11.94-14.26-11.94
					s-13.03,4.51-14.01,11.94H129.18z"/>
				<path class="st0" d="M194.03,458.65v15.6h-6.83c-10.23,0-14.13,6.83-14.13,16.32v30.7h-17.18v-62.62h15.6l1.58,9.38
					c3.41-5.6,8.28-9.38,18.03-9.38L194.03,458.65L194.03,458.65z"/>
				<path class="st0" d="M196.85,458.65h18.4l15.11,45.08l14.87-45.08h18.03l-22.54,62.62H219.4L196.85,458.65L196.85,458.65
					L196.85,458.65z"/>
				<path class="st0" d="M263.64,489.96c0-19.25,13.04-32.04,33.02-32.04s33.02,12.79,33.02,32.04S316.64,522,296.66,522
					S263.64,509.21,263.64,489.96z M312.25,489.96c0-10.6-5.97-18.04-15.6-18.04s-15.47,7.43-15.47,18.04S287.03,508,296.65,508
					S312.25,500.57,312.25,489.96z"/>
				<path class="st0" d="M352.99,489.35l-22.18-30.7h19.62l12.92,18.52l13.28-18.52h18.52l-22.05,30.7l23.27,31.92h-19.62
					l-14.37-19.62l-14.26,19.62h-18.4L352.99,489.35z"/>
			</g>
			<g>
				<path class="st0" d="M214.63,364.36c-30.19,18.81-65.86,29.68-104.06,29.68H0v-29.68H214.63z"/>
				<path class="st0" d="M260.95,324.34c-8.2,9.67-17.3,18.52-27.18,26.46H0v-26.46H260.95z"/>
				<path class="st0" d="M287.43,283.98c-4.1,8.32-8.76,16.31-13.96,23.91H0v-23.91H287.43z"/>
				<path class="st0" d="M301.98,243.96c-1.78,7.29-3.97,14.42-6.54,21.37H0v-21.37L301.98,243.96L301.98,243.96z"/>
				<path class="st0" d="M307.46,204.61c-0.23,6.06-0.73,12.07-1.51,17.98H0v-17.98H307.46z"/>
				<path class="st0" d="M306.85,179.74H0v-15.38h304.92C305.75,169.43,306.41,174.55,306.85,179.74z"/>
				<path class="st0" d="M298.34,137.12H0v-12.61h293.84C295.48,128.65,296.97,132.85,298.34,137.12z"/>
				<path class="st0" d="M279.1,94.89H0v-8.83h273.41c1.97,2.89,3.88,5.83,5.7,8.83H279.1z"/>
				<path class="st0" d="M241.27,49.58H0v-6.37h233.72C236.28,45.28,238.81,47.39,241.27,49.58z"/>
				<path class="st0" d="M155.12,5.06H0V0h110.58C125.89,0,140.8,1.75,155.12,5.06z"/>
				<path class="st0" d="M301.22,29.68C271.02,10.87,235.36,0,197.16,0H86.58v29.68H301.22z"/>
				<path class="st0" d="M347.53,69.7c-8.2-9.67-17.3-18.52-27.18-26.46H86.58V69.7H347.53L347.53,69.7L347.53,69.7z"/>
				<path class="st0" d="M374.01,110.07c-4.1-8.32-8.76-16.31-13.96-23.91H86.58v23.91C86.58,110.07,374.01,110.07,374.01,110.07z"
					/>
				<path class="st0" d="M388.56,150.09c-1.78-7.29-3.97-14.42-6.54-21.37H86.58v21.37H388.56z"/>
				<path class="st0" d="M394.05,189.44c-0.23-6.06-0.73-12.07-1.51-17.98H86.58v17.98H394.05z"/>
				<path class="st0" d="M393.44,214.31H86.58v15.38H391.5c0.83-5.07,1.49-10.19,1.93-15.38H393.44z"/>
				<path class="st0" d="M384.92,256.93H86.58v12.61h293.84C382.06,265.4,383.55,261.2,384.92,256.93L384.92,256.93L384.92,256.93z"
					/>
				<path class="st0" d="M365.69,299.16H86.58v8.83h273.41C361.96,305.1,363.87,302.16,365.69,299.16z"/>
				<path class="st0" d="M327.86,344.47H86.58v6.37H320.3c2.56-2.07,5.09-4.18,7.55-6.37H327.86z"/>
				<path class="st0" d="M241.7,388.99H86.58v5.06h110.58C212.47,394.05,227.38,392.3,241.7,388.99L241.7,388.99L241.7,388.99z"/>
			</g>
		</g>
		<path class="st0" d="M450.32,405.64c4.83,4.73,7.24,10.74,7.24,18.03s-2.41,13.3-7.24,18.03s-10.98,7.09-18.47,7.09
			s-13.64-2.36-18.47-7.09s-7.24-10.74-7.24-18.03s2.41-13.3,7.24-18.03s10.98-7.09,18.47-7.09S445.49,400.91,450.32,405.64z
			 M447.11,438.55c3.92-3.92,5.87-8.88,5.87-14.89s-1.97-10.97-5.91-14.89s-9.01-5.87-15.22-5.87s-11.28,1.96-15.22,5.87
			c-3.94,3.92-5.91,8.88-5.91,14.89s1.96,10.97,5.87,14.89c3.92,3.92,9,5.87,15.25,5.87s11.34-1.96,15.26-5.87H447.11z
			 M443.9,435.78h-5.54l-6.06-8.27h-5.61v8.27h-4.58v-24.23h12.41c2.61,0,4.69,0.73,6.24,2.18c1.55,1.45,2.33,3.36,2.33,5.73
			c0,1.97-0.52,3.63-1.55,4.99c-1.03,1.35-2.46,2.28-4.28,2.77v0.15l6.65,8.42L443.9,435.78L443.9,435.78z M434.07,415.54h-7.39
			v7.98h7.39c2.86,0,4.28-1.33,4.28-3.99S436.92,415.54,434.07,415.54L434.07,415.54L434.07,415.54z"/>
	</g>
</g>
<g id="Guides" class="st1">
</g>
</svg>
