<?xml version="1.0" standalone="no"?>
<!DOCTYPE svg PUBLIC "-//W3C//DTD SVG 20010904//EN"
 "http://www.w3.org/TR/2001/REC-SVG-20010904/DTD/svg10.dtd">
<svg version="1.0" xmlns="http://www.w3.org/2000/svg"
 width="500.000000pt" height="500.000000pt" viewBox="0 0 500.000000 500.000000"
 preserveAspectRatio="xMidYMid meet">

<g transform="translate(0.000000,500.000000) scale(0.100000,-0.100000)"
fill="#000000" stroke="none">
<path d="M1128 3169 c-17 -9 -18 -52 -18 -669 l0 -659 22 -12 c32 -17 436 -5
506 15 70 20 158 60 198 91 18 14 37 25 43 25 7 0 11 -24 11 -60 0 -48 4 -61
19 -70 25 -13 181 -13 215 0 l26 10 0 355 c0 195 4 355 8 355 5 0 81 -74 170
-165 89 -91 168 -165 176 -165 8 0 85 74 172 165 87 91 161 165 166 165 4 0 8
-160 8 -355 0 -413 -13 -375 130 -375 146 0 130 -85 130 688 l0 667 -305 -305
-306 -305 -302 305 -302 305 -3 -67 c-3 -70 -11 -81 -41 -54 -23 20 -127 71
-186 91 -27 9 -86 21 -130 26 -107 12 -386 11 -407 -2z m445 -264 c83 -21 133
-50 198 -112 83 -79 113 -149 117 -277 3 -82 0 -108 -18 -160 -42 -115 -112
-190 -226 -243 -53 -24 -71 -27 -169 -28 l-110 0 -3 405 c-1 223 0 411 3 417
6 18 137 17 208 -2z"/>
<path d="M3256 2445 c4 -8 8 -15 10 -15 2 0 4 7 4 15 0 8 -4 15 -10 15 -5 0
-7 -7 -4 -15z"/>
<path d="M3508 2438 c-14 -8 1 -12 32 -9 12 2 13 0 1 -7 -15 -11 -51 -4 -51 9
0 15 -168 5 -182 -10 -10 -10 -10 -12 -1 -7 7 4 26 0 42 -9 19 -9 56 -15 99
-15 125 0 183 -45 190 -149 4 -61 -17 -105 -69 -144 -84 -62 -232 -25 -277 69
-16 34 -18 35 -67 32 l-50 -3 -3 -115 c-1 -63 0 -124 2 -136 7 -27 65 -65 143
-94 53 -19 77 -22 166 -18 94 3 110 7 170 37 152 77 239 212 238 370 0 74 -24
171 -42 171 -6 0 -7 5 -3 12 5 7 3 8 -5 4 -14 -9 -84 2 -77 12 6 10 -241 10
-256 0z m-64 -16 c2 -4 -11 -6 -30 -4 -19 2 -34 6 -34 8 0 8 59 4 64 -4z"/>
</g>
</svg>
